<svg xmlns="http://www.w3.org/2000/svg" xmlns:xlink="http://www.w3.org/1999/xlink" width="44" height="45" version="1.1" viewBox="0 0 44 45"><title>username</title><desc>Created with Sketch.</desc><defs><circle id="path-1" cx="22" cy="22" r="22"/><mask id="mask-2" width="44" height="44" x="0" y="0" fill="#fff" maskContentUnits="userSpaceOnUse" maskUnits="objectBoundingBox"><use xlink:href="#path-1"/></mask><path id="path-3" d="M21.975,24.9665552 C25.81125,24.9665552 28.95,21.8240803 28.95,17.9832776 C28.95,14.1424749 25.81125,11 21.975,11 C18.13875,11 15,14.1424749 15,17.9832776 C15,21.8240803 18.13875,24.9665552 21.975,24.9665552 L21.975,24.9665552 Z"/><mask id="mask-4" width="13.95" height="13.967" x="0" y="0" fill="#fff" maskContentUnits="userSpaceOnUse" maskUnits="objectBoundingBox"><use xlink:href="#path-3"/></mask><path id="path-5" d="M38,35.9531773 C38,30.5847826 27.4,28 22,28 C16.6,28 6,30.5847826 6,35.9531773"/><mask id="mask-6" width="32" height="7.953" x="0" y="0" fill="#fff" maskContentUnits="userSpaceOnUse" maskUnits="objectBoundingBox"><use xlink:href="#path-5"/></mask></defs><g id="do" fill="none" fill-rule="evenodd" stroke="none" stroke-width="1" opacity=".5"><g id="1-Login" transform="translate(-43.000000, -621.000000)"><g id="username"><g transform="translate(40.000000, 618.000000) translate(0.000000, 0.934833)"><g id="group" stroke="#FFF" stroke-width="4" transform="translate(3.000000, 3.000000)"><use id="oval" mask="url(#mask-2)" xlink:href="#path-1"/><use id="shape" mask="url(#mask-4)" xlink:href="#path-3"/><use id="Path" mask="url(#mask-6)" xlink:href="#path-5"/></g><rect id="bounds" width="50" height="49.306" x="0" y="0"/></g></g></g></g></svg>