<svg xmlns="http://www.w3.org/2000/svg" xmlns:svg="http://www.w3.org/2000/svg" id="Layer_1" width="356.438" height="352.018" x="0" y="0" enable-background="new 0 0 318 315.333" version="1.1" viewBox="0 0 356.438 352.018" xml:space="preserve"><title id="title3974">Bluemix logo</title><metadata id="metadata17"/><g id="g3956" transform="translate(3.21875,-52.721671)"><path id="engine-northeast" d="m -32.09419,42.774808 -117.38359,-6e-6 -58.69179,-101.657174 58.6918,-101.657168 117.38359,10e-6 58.69179,101.65717 z" transform="matrix(-0.42595391,0.73777382,0.73777382,0.42595391,254.77123,234.18861)" style="fill:#00b198;fill-opacity:1;stroke:none"><title id="title3942">Northeast engine</title></path><path style="fill:#fff;fill-opacity:1;stroke:none" id="crown-engine-northeast" d="m 198.375,52.721666 -51.59375,89.406254 51.59375,89.40625 103.25001,0 51.59375,-89.40625 -51.59375,-89.406254 -103.25001,0 z m 3.25,5.625 96.75001,0 48.40625,83.781254 -48.40625,83.8125 -96.75001,0 -48.40625,-83.8125 48.40625,-83.781254 z"><title id="title3950">Crown for northeast engine</title></path><path id="engine-southeast" d="m -32.09419,42.774808 -117.38359,-6e-6 -58.69179,-101.657174 58.6918,-101.657168 117.38359,10e-6 58.69179,101.65717 z" transform="matrix(-0.42595391,-0.73777382,-0.73777382,0.42595391,167.88749,273.43465)" style="fill:#00aed1;fill-opacity:1;stroke:none"><title id="title3944">Southeast engine</title></path><path id="crown-engine-southeast" d="m 198.375,225.92674 -51.59375,89.40626 51.59375,89.40625 103.25001,0 51.59375,-89.40625 -51.59375,-89.40626 -103.25001,0 z m 3.25,5.625 96.75001,0 48.40625,83.78126 -48.40625,83.8125 -96.75001,0 -48.40625,-83.8125 48.40625,-83.78126 z" style="fill:#fff;fill-opacity:1;stroke:none"><title id="title3952">Crown for southeast engine</title></path><path style="fill:#3b4b54;fill-opacity:1;stroke:none" id="engine-west" d="m -32.09419,42.774808 -117.38359,-6e-6 -58.69179,-101.657174 58.6918,-101.657168 117.38359,10e-6 58.69179,101.65717 z" transform="matrix(0.85190783,0,0,-0.85190783,177.34129,178.56811)"><title id="title3940">West engine</title></path><path id="crown-engine-west" d="M 48.375,139.3125 -3.21875,228.71875 48.375,318.125 l 103.25,0 51.59375,-89.40625 -51.59375,-89.40625 -103.25,0 z m 3.25,5.625 96.75,0 48.40625,83.78125 -48.40625,83.8125 -96.75,0 L 3.21875,228.71875 51.625,144.9375 z" style="fill:#fff;fill-opacity:1;stroke:none"><title id="title3954">Crown for west engine</title></path><path id="triangle" d="m 148.375,139.3125 0,178.8125 L 303.21875,228.71875 148.375,139.3125 z m 5.59375,9.71875 138.0625,79.6875 -138.0625,79.71875 0,-159.40625 z" transform="translate(0,-3.90625e-6)" style="fill:#fff;fill-opacity:1;stroke:none"><title id="title3948">Triangle</title></path><path id="circle" d="m 200,128.71875 c -55.22848,0 -100,44.77152 -100,100 0,55.22848 44.77152,100 100,100 55.22848,0 100,-44.77152 100,-100 0,-55.22848 -44.77152,-100 -100,-100 z m 0,5.625 c 52.13513,0 94.40625,42.23987 94.40625,94.375 0,52.13513 -42.27112,94.40625 -94.40625,94.40625 -52.13513,0 -94.40625,-42.27112 -94.40625,-94.40625 0,-52.13513 42.27112,-94.375 94.40625,-94.375 z" style="fill:#fff;fill-opacity:1;stroke:none"><title id="title3946">Circle</title></path></g></svg>